<?xml version="1.0" encoding="utf-8"?>
<!-- Generator: Adobe Illustrator 16.2.1, SVG Export Plug-In . SVG Version: 6.00 Build 0)  -->
<!DOCTYPE svg PUBLIC "-//W3C//DTD SVG 1.1//EN" "http://www.w3.org/Graphics/SVG/1.1/DTD/svg11.dtd">
<svg version="1.1" id="レイヤー_1" xmlns="http://www.w3.org/2000/svg" xmlns:xlink="http://www.w3.org/1999/xlink" x="0px"
	 y="0px" width="640px" height="200px" viewBox="0 0 640 200" enable-background="new 0 0 640 200" xml:space="preserve">
<g>
	<g>
		<polygon fill="#FFFFFF" points="20.303,157.992 108.937,36 95.059,36 		"/>
		<polygon fill="#FFFFFF" points="21.046,158.541 143.587,36 125.704,36 		"/>
		<polygon fill="#FFFFFF" points="19.47,157.594 81.424,36 69.835,36 		"/>
		<polygon fill="#FFFFFF" points="21.784,160.642 143,141.443 143,131.54 		"/>
		<polygon fill="#FFFFFF" points="20.811,158.072 143,69.298 143,53.711 		"/>
		<polygon fill="#FFFFFF" points="21.293,158.86 143,96.848 143,84.278 		"/>
		<polygon fill="#FFFFFF" points="18.577,157.354 58.006,36 47.711,36 		"/>
		<polygon fill="#FFFFFF" points="21.618,159.729 143,120.29 143,109.449 		"/>
		<rect x="17.172" y="162.033" fill="#FFFFFF" width="0" height="0.006"/>
		<rect x="17.167" y="162.036" fill="#FFFFFF" width="0.002" height="0"/>
		<polygon fill="#FFFFFF" points="17.108,162 17.187,162 17.306,162 17.335,162 17.379,162 17.426,162 17.485,162 143.695,162 
			143.695,162 		"/>
		<rect x="17.183" y="162.035" fill="#FFFFFF" width="0" height="0.001"/>
		<rect x="17.162" y="162.031" fill="#FFFFFF" width="0" height="0.009"/>
		<rect x="17.185" y="162.034" fill="#FFFFFF" width="0" height="0.003"/>
		<rect x="17.179" y="162.033" fill="#FFFFFF" width="0" height="0.007"/>
		<polygon fill="#FFFFFF" points="16.669,162.036 16.669,162.036 16.669,162.036 		"/>
		<g>
			<polygon fill="#006934" points="20.517,157.718 143,53.105 143,35.233 			"/>
			<polygon fill="#006934" points="20.686,158.248 125.1,36 109.507,36 			"/>
			<polygon fill="#006934" points="19.028,157.453 69.336,36 58.492,36 			"/>
			<polygon fill="#006934" points="19.896,157.773 94.519,36 81.943,36 			"/>
			<polygon fill="#006934" points="21.478,159.285 143,108.949 143,97.366 			"/>
			<polygon fill="#006934" points="21.72,160.181 143,131.063 143,120.775 			"/>
			<polygon fill="#006934" points="143,141.91 21.803,161.106 143,151.57 			"/>
			<polygon fill="#006934" points="21.074,158.453 143,83.737 143,69.869 			"/>
			<polygon fill="#006934" points="18.116,157.293 47.236,36 37.327,36 			"/>
			<polygon fill="#006934" points="17,161 16.748,161 16.76,161.862 26.734,36 17,36 			"/>
		</g>
		<polygon fill="#FFFFFF" points="17.651,157.273 36.861,36 27.197,36 		"/>
		<polygon fill="#FFFFFF" points="17.182,162.036 17.182,162.036 17.182,162.036 		"/>
		<polygon fill="#FFFFFF" points="17.175,162.036 17.175,162.036 17.175,162.036 		"/>
		<polygon fill="#FFFFFF" points="17.199,162.001 17.19,162.001 17.187,162.025 		"/>
		<polygon fill="#FFFFFF" points="143,152.032 22.484,161 143,161 		"/>
	</g>
	<path fill="none" stroke="#FFFFFF" stroke-width="4" stroke-miterlimit="10" d="M26.511,37H15v125h128.487
		c0.001,0,0.005,0.193,0.005,0.021C143.492,95.492,91.879,41,26.511,37z"/>
	<path fill="none" stroke="#FFFFFF" stroke-width="4" stroke-miterlimit="10" d="M25.337,52H15v110h112.654
		c0.001,0,0.004-0.161,0.004-0.313C127.658,103.496,82.513,56,25.337,52z"/>
	<path fill="none" stroke="#FFFFFF" stroke-width="4" stroke-miterlimit="10" d="M24.19,68H15v94h97c0,0,0,0.837,0,0.705
		C112,112.658,73.367,70,24.19,68z"/>
	<path fill="none" stroke="#FFFFFF" stroke-width="4" stroke-miterlimit="10" d="M23.021,85H15v77h81.411
		c0,0,0.003,0.835,0.003,0.727C96.414,120.987,64.034,85,23.021,85z"/>
	<path fill="none" stroke="#FFFFFF" stroke-width="4" stroke-miterlimit="10" d="M21.85,101H15v61h66c0,0,0,0.808,0,0.723
		C81,129.293,54.698,101,21.85,101z"/>
	<path fill="none" stroke="#FFFFFF" stroke-width="4" stroke-miterlimit="10" d="M20.381,116H15v46h50c0,0,0,0.906,0,0.842
		C65,137.601,45.18,116,20.381,116z"/>
	<path fill="none" stroke="#FFFFFF" stroke-width="4" stroke-miterlimit="10" d="M20.696,116H15v46h50c0,0,0,0.906,0,0.842
		C65,137.601,45.497,116,20.696,116z"/>
	<path fill="none" stroke="#FFFFFF" stroke-width="4" stroke-miterlimit="10" d="M19.82,131H15v31h33c0,0,0-0.28,0-0.323
		C48,144.911,36.293,131,19.82,131z"/>
	<g opacity="0.1">
		<rect x="15" y="118" fill="none" stroke="#FFFFFF" stroke-width="4" stroke-miterlimit="10" width="3" height="5"/>
		<rect x="56" y="118" fill="none" stroke="#FFFFFF" stroke-width="4" stroke-miterlimit="10" width="3" height="5"/>
		<rect x="56" y="161" fill="none" stroke="#FFFFFF" stroke-width="4" stroke-miterlimit="10" width="3" height="1"/>
		<rect x="15" y="157" fill="none" stroke="#FFFFFF" stroke-width="4" stroke-miterlimit="10" width="7" height="5"/>
		<rect x="15" y="118" fill="none" stroke="#FFFFFF" stroke-width="4" stroke-miterlimit="10" width="46" height="44"/>
	</g>
</g>
<g>
	<path fill="#006934" d="M234.047,67.043c-1.524-3.087-3.54-5.596-6.049-7.53c-2.512-1.933-5.494-3.312-8.95-4.136
		c-3.456-0.821-7.16-1.234-11.11-1.234c-3.045,0-6.215,0.309-9.505,0.926c-3.292,0.617-6.276,1.709-8.95,3.271
		c-2.675,1.564-4.876,3.642-6.604,6.233c-1.728,2.593-2.592,5.864-2.592,9.814s0.883,7.119,2.654,9.505
		c1.769,2.388,4.074,4.321,6.913,5.802c2.839,1.481,6.068,2.635,9.69,3.457c3.621,0.823,7.324,1.688,11.11,2.592
		c4.114,1.071,8.003,2.099,11.666,3.087c3.661,0.987,6.851,2.305,9.567,3.95c2.716,1.646,4.876,3.826,6.481,6.542
		s2.407,6.379,2.407,10.987c0,4.196-0.907,7.776-2.716,10.739c-1.811,2.963-4.197,5.412-7.16,7.345
		c-2.963,1.935-6.296,3.333-9.999,4.197c-3.704,0.864-7.449,1.297-11.234,1.297c-5.021,0-9.65-0.577-13.887-1.729
		c-4.24-1.151-7.901-2.982-10.987-5.493c-3.086-2.51-5.474-5.74-7.16-9.69c-1.688-3.95-2.49-8.723-2.407-14.32h2.469
		c0,5.268,0.781,9.733,2.346,13.395c1.562,3.662,3.765,6.646,6.604,8.949c2.839,2.305,6.213,3.972,10.123,5
		c3.908,1.029,8.209,1.543,12.9,1.543c3.457,0,6.892-0.39,10.308-1.173c3.414-0.781,6.48-2.037,9.196-3.766
		c2.716-1.728,4.917-3.95,6.604-6.666c1.686-2.716,2.531-5.966,2.531-9.752c0-4.443-0.968-7.962-2.901-10.555
		c-1.935-2.592-4.404-4.648-7.407-6.172c-3.005-1.521-6.338-2.674-10-3.457c-3.663-0.78-7.181-1.583-10.554-2.406
		c-3.54-0.822-7.079-1.687-10.616-2.593c-3.54-0.904-6.728-2.16-9.567-3.765c-2.839-1.605-5.123-3.744-6.851-6.42
		c-1.728-2.673-2.592-6.15-2.592-10.431c0-4.361,0.905-8.003,2.716-10.925c1.809-2.921,4.155-5.247,7.036-6.975
		c2.88-1.729,6.111-2.963,9.69-3.704c3.58-0.74,7.139-1.11,10.678-1.11c4.361,0,8.373,0.475,12.036,1.419
		c3.661,0.947,6.87,2.47,9.628,4.568c2.756,2.098,4.957,4.856,6.604,8.271c1.645,3.416,2.592,7.592,2.839,12.529h-2.469
		C236.412,73.937,235.568,70.129,234.047,67.043z"/>
	<path fill="#006934" d="M246.749,53.772v40.366h0.247c0.575-2.469,1.5-4.731,2.777-6.789c1.275-2.057,2.88-3.867,4.814-5.432
		c1.933-1.562,4.176-2.777,6.728-3.642c2.55-0.864,5.389-1.297,8.518-1.297c3.291,0,6.315,0.494,9.073,1.481
		c2.756,0.988,5.142,2.45,7.16,4.383c2.016,1.935,3.58,4.32,4.691,7.159c1.111,2.84,1.667,6.111,1.667,9.814v42.095h-2.469v-41.725
		c0-3.703-0.536-6.852-1.605-9.443c-1.07-2.593-2.531-4.731-4.382-6.419c-1.852-1.687-3.993-2.921-6.419-3.704
		c-2.429-0.78-5-1.172-7.715-1.172c-3.787,0-7.12,0.721-9.999,2.16c-2.882,1.44-5.289,3.375-7.222,5.802
		c-1.935,2.429-3.395,5.246-4.382,8.456c-0.988,3.209-1.481,6.585-1.481,10.122v35.923h-2.469v-88.14H246.749z"/>
	<path fill="#006934" d="M342.937,141.912v-15.678h-0.246c-1.154,4.938-3.685,9.012-7.593,12.222
		c-3.909,3.209-8.992,4.813-15.245,4.813c-3.292,0-6.317-0.474-9.073-1.419c-2.758-0.945-5.144-2.386-7.16-4.32
		c-2.018-1.934-3.58-4.321-4.691-7.16c-1.111-2.84-1.667-6.11-1.667-9.814V78.461h2.469v41.725c0,3.703,0.534,6.852,1.605,9.443
		c1.068,2.593,2.531,4.733,4.382,6.42c1.852,1.688,3.991,2.922,6.419,3.703c2.427,0.783,5,1.173,7.715,1.173
		c3.784,0,7.117-0.72,9.999-2.16c2.88-1.439,5.287-3.374,7.222-5.803c1.933-2.426,3.395-5.246,4.382-8.456
		c0.988-3.209,1.481-6.583,1.481-10.122V78.461h2.47v63.451H342.937z"/>
	<path fill="#006934" d="M353.516,96.237c1.481-5.76,4.402-10.41,8.765-13.949c4.361-3.537,9.916-5.309,16.665-5.309
		c4.361,0,8.229,0.907,11.604,2.716c3.373,1.812,6.191,4.24,8.456,7.283c2.263,3.046,3.99,6.586,5.185,10.617
		c1.192,4.033,1.79,8.271,1.79,12.715c0,4.773-0.617,9.177-1.852,13.208c-1.234,4.033-3.024,7.511-5.37,10.432
		c-2.346,2.922-5.185,5.206-8.518,6.851c-3.333,1.646-7.099,2.469-11.296,2.469c-6.502,0-11.954-1.769-16.356-5.308
		c-4.403-3.537-7.428-8.147-9.073-13.826h-0.246v17.776h-2.47v-88.14h2.47v42.465H353.516z M354.997,122.037
		c1.151,3.704,2.818,6.956,5,9.753c2.18,2.798,4.876,5.021,8.086,6.666c3.209,1.646,6.829,2.469,10.862,2.469
		c4.114,0,7.716-0.822,10.802-2.469c3.086-1.646,5.636-3.889,7.653-6.729c2.016-2.839,3.538-6.11,4.568-9.813
		c1.027-3.703,1.543-7.57,1.543-11.604c0-3.704-0.475-7.386-1.42-11.049c-0.947-3.661-2.407-6.953-4.383-9.876
		c-1.975-2.92-4.505-5.308-7.592-7.159c-3.086-1.852-6.811-2.777-11.172-2.777c-7.736,0-13.949,2.653-18.64,7.962
		c-4.691,5.308-7.036,12.942-7.036,22.899C353.27,114.426,353.844,118.334,354.997,122.037z"/>
	<path fill="#006934" d="M408.669,66.24V53.772h2.47V66.24H408.669z M408.669,141.912V78.461h2.47v63.451H408.669z"/>
	<path fill="#006934" d="M445.221,53.772l20.615,60.611h0.247l19.505-60.611h27.281v88.14h-18.146V79.449h-0.247l-21.603,62.463
		h-14.938l-21.603-61.846h-0.247v61.846h-18.146v-88.14H445.221z"/>
	<path fill="#006934" d="M520.745,68.215V53.772h17.529v14.442H520.745z M538.274,78.091v63.821h-17.529V78.091H538.274z"/>
	<path fill="#006934" d="M563.457,126.604c2.633,2.552,6.419,3.827,11.357,3.827c3.537,0,6.583-0.884,9.135-2.654
		c2.55-1.769,4.114-3.642,4.69-5.616h15.431c-2.469,7.653-6.255,13.127-11.356,16.418c-5.104,3.293-11.276,4.938-18.517,4.938
		c-5.021,0-9.548-0.802-13.579-2.407c-4.033-1.604-7.449-3.889-10.246-6.851c-2.799-2.963-4.959-6.5-6.481-10.616
		c-1.523-4.114-2.283-8.642-2.283-13.579c0-4.772,0.781-9.216,2.346-13.332c1.562-4.114,3.784-7.673,6.666-10.679
		c2.879-3.003,6.314-5.369,10.308-7.098c3.99-1.729,8.413-2.593,13.271-2.593c5.431,0,10.162,1.05,14.195,3.148
		c4.031,2.099,7.346,4.918,9.938,8.456c2.593,3.539,4.464,7.572,5.617,12.098c1.151,4.526,1.562,9.258,1.234,14.196h-46.045
		C559.384,119.938,560.822,124.055,563.457,126.604z M583.271,93.027c-2.099-2.303-5.289-3.456-9.567-3.456
		c-2.799,0-5.123,0.475-6.975,1.42c-1.852,0.946-3.333,2.119-4.444,3.518c-1.111,1.4-1.894,2.882-2.346,4.444
		c-0.453,1.564-0.721,2.963-0.802,4.197h28.516C586.829,98.706,585.368,95.333,583.271,93.027z"/>
	<path fill="#006934" d="M625.87,53.772v88.14h-17.529v-88.14H625.87z"/>
</g>
</svg>
