<?xml version="1.0" encoding="utf-8"?>
<!-- Generator: Adobe Illustrator 16.2.1, SVG Export Plug-In . SVG Version: 6.00 Build 0)  -->
<!DOCTYPE svg PUBLIC "-//W3C//DTD SVG 1.1//EN" "http://www.w3.org/Graphics/SVG/1.1/DTD/svg11.dtd">
<svg version="1.1" id="レイヤー_1" xmlns="http://www.w3.org/2000/svg" xmlns:xlink="http://www.w3.org/1999/xlink" x="0px"
	 y="0px" width="640px" height="640px" viewBox="0 0 640 640" enable-background="new 0 0 640 640" xml:space="preserve">
<polygon fill="#CA3F3F" points="57.547,7 46,-0.356 34.453,7 0,7 0,367 640,367 640,7 "/>
<rect x="34" y="120" fill="#FFFFFF" width="95" height="96"/>
<rect x="151" y="120" fill="#FFFFFF" width="95" height="96"/>
<rect x="268" y="120" fill="#FFFFFF" width="96" height="96"/>
<rect x="386" y="120" fill="#FFFFFF" width="96" height="96"/>
<rect x="504" y="120" fill="#FFFFFF" width="95" height="96"/>
<rect x="34" y="234" fill="#FFFFFF" width="95" height="96"/>
<rect x="151" y="234" fill="#FFFFFF" width="95" height="96"/>
<rect x="268" y="234" fill="#FFFFFF" width="96" height="96"/>
<rect x="386" y="234" fill="#FFFFFF" width="96" height="96"/>
<rect x="504" y="234" fill="#FFFFFF" width="95" height="96"/>
<g>
	<path fill="#FFFFFF" d="M231.864,62.314h-13.174c-0.792,7.271-3.023,12.634-10.259,16.666c-0.18-0.288-0.54-0.612-0.828-0.864
		c6.875-3.779,9.143-8.783,9.935-15.802h-15.442v-1.152h15.55c0.216-2.7,0.252-5.651,0.288-9.035
		c-4.031,0.972-9.215,1.872-13.39,2.412c-0.108-0.36-0.252-0.756-0.396-1.08c5.435-0.684,10.042-1.512,13.93-2.52
		c3.6-0.936,6.947-1.98,8.639-2.7l1.044,1.152c-0.108,0.072-0.216,0.072-0.36,0.072s-0.252,0-0.36-0.036
		c-1.98,0.72-5.147,1.728-8.243,2.52l0.936,0.108c-0.036,0.252-0.252,0.432-0.648,0.468c-0.036,3.132-0.072,6.011-0.288,8.639
		h13.066V62.314z"/>
	<path fill="#FFFFFF" d="M237.771,62.062h30.057v1.188h-28.797c-0.18,0.36-0.647,0.612-1.043,0.648L237.771,62.062z"/>
	<path fill="#FFFFFF" d="M303.54,77.72c-0.504-1.08-1.188-2.375-2.016-3.779c-7.235,0.72-21.166,1.44-26.817,1.764
		c-0.072,0.324-0.324,0.576-0.612,0.684l-0.576-1.8c1.116-0.036,2.412-0.072,3.852-0.144c2.484-7.091,6.191-18.214,8.351-25.629
		l1.872,0.54c-0.144,0.324-0.432,0.432-0.936,0.432c-2.16,6.983-5.507,17.386-8.063,24.585c7.127-0.324,16.81-0.972,22.281-1.476
		c-2.124-3.419-4.968-7.235-7.451-9.971l0.972-0.612c3.924,4.175,8.567,11.23,10.295,14.974L303.54,77.72z"/>
	<path fill="#FFFFFF" d="M317.727,61.594c1.764-1.656,4.463-2.7,6.371-2.7c2.699,0,4.068,1.944,4.464,4.968
		c3.203-1.476,7.307-3.132,10.402-4.32l0.756,1.512c-0.071,0.036-0.144,0.036-0.216,0.036c-0.18,0-0.396-0.108-0.54-0.216
		c-2.771,0.972-7.019,2.664-10.259,4.175c0.108,0.9,0.145,1.98,0.145,3.204c0,1.332-0.036,2.844-0.145,4.428h-1.295
		c0.107-1.404,0.18-3.312,0.18-4.967c0-0.828,0-1.584-0.072-2.16c-4.896,2.376-9.107,5.184-9.107,7.919
		c0,2.412,2.843,3.708,8.458,3.708c3.672,0,6.731-0.072,9.107-0.36v1.224c-2.304,0.216-5.651,0.288-9.107,0.288
		c-6.911,0-9.683-1.728-9.683-4.859c0-3.348,4.499-6.264,10.114-9.071c-0.287-3.095-1.619-4.319-3.311-4.319
		c-2.809,0-5.688,1.656-9.143,5.436c-1.08,1.188-2.556,2.556-4.104,3.923l-0.792-0.828c4.031-3.564,7.163-6.372,9.539-14.398
		l-2.483,0.036h-6.263v-1.152h6.227l2.844-0.036c0.432-1.764,0.828-3.384,1.116-5.435l2.125,0.36
		c-0.072,0.36-0.324,0.576-0.865,0.612c-0.287,1.656-0.647,3.023-1.043,4.463c2.195,0,8.171-0.54,13.391-2.196l0.252,1.188
		c-5.22,1.584-10.979,2.16-13.967,2.16c-0.972,3.275-2.088,5.831-3.132,7.379H317.727z"/>
	<path fill="#FFFFFF" d="M350.919,61.45v11.986c3.239,4.715,9.431,4.715,15.586,4.715c3.888,0,8.495-0.108,11.051-0.216
		c-0.181,0.252-0.36,0.756-0.396,1.116c-2.376,0.072-6.588,0.108-10.223,0.108c-7.092,0-12.707,0-16.486-4.679
		c-1.764,1.728-3.6,3.491-5.076,4.823c0.037,0.216-0.035,0.324-0.215,0.468l-0.864-1.188c1.655-1.332,3.743-3.24,5.544-5.04V62.53
		h-5.256v-1.08H350.919z M346.023,47.7c2.412,1.728,5.004,4.319,6.119,6.191l-0.863,0.684c-1.116-1.908-3.672-4.535-6.084-6.299
		L346.023,47.7z M377.232,68.433v1.08h-24.334v-1.08h7.308v-4.536h-5.759v-1.08h5.759v-3.384l1.62,0.144
		c-0.037,0.18-0.181,0.324-0.541,0.36v2.88h7.416v-3.384l1.619,0.144c-0.035,0.18-0.18,0.324-0.539,0.36v2.88h5.902v1.08h-5.902
		v4.536H377.232z M361.394,52.847v-3.24h-7.919v-1.08h8.999v5.399h-6.839v2.88c0,0.612,0.216,0.756,1.512,0.756h4.967
		c0.936,0,1.116-0.216,1.188-2.232c0.289,0.216,0.685,0.324,1.009,0.396c-0.108,2.304-0.505,2.844-2.017,2.844h-5.111
		c-2.051,0-2.627-0.252-2.627-1.764v-3.959H361.394z M363.193,70.809c-0.107,0.216-0.359,0.252-0.648,0.216
		c-2.051,1.835-5.146,3.779-7.703,5.003c-0.18-0.216-0.539-0.576-0.791-0.756c2.52-1.152,5.688-3.06,7.703-5.076L363.193,70.809z
		 M361.285,63.897v4.536h7.416v-4.536H361.285z M373.848,52.847v-3.24h-8.387v-1.08h9.467v5.399h-7.199v2.844
		c0,0.648,0.252,0.792,1.729,0.792H375c1.08,0,1.26-0.252,1.332-2.448c0.287,0.216,0.72,0.324,1.043,0.432
		c-0.143,2.447-0.539,3.023-2.195,3.023h-5.688c-2.231,0-2.844-0.252-2.844-1.8v-3.923H373.848z M368.053,70.197
		c3.24,1.476,6.588,3.384,8.566,5.04l-0.899,0.756c-1.907-1.656-5.147-3.6-8.387-5.111L368.053,70.197z"/>
	<path fill="#FFFFFF" d="M380.836,74.373c2.16-1.368,5.975-4.32,8.963-7.055l0.576,0.972c-2.448,2.124-5.939,4.967-8.027,6.515
		c0.036,0.36-0.107,0.648-0.324,0.828L380.836,74.373z M394.658,58.642c-0.684,1.152-1.08,2.124-1.08,3.024
		c0,1.656,1.225,3.096,3.888,5.003c3.023,2.124,4.355,4.643,4.355,6.875c0,2.844-2.159,5.111-5.399,5.111
		c-1.8,0-3.636-0.792-6.983-2.627c0.216-0.252,0.396-0.684,0.54-1.008c3.384,1.836,5.039,2.484,6.479,2.484
		c2.628,0,4.212-1.728,4.212-3.923c0-1.692-1.152-4.176-4.032-6.155c-2.987-2.052-4.247-3.815-4.247-5.723
		c0-1.152,0.432-2.304,1.26-3.636L394.658,58.642z M390.807,47.88c3.455,2.447,8.783,4.175,13.246,4.499l-0.145,1.116
		c-0.684-0.072-1.26-0.144-1.799-0.144c-1.943,0-3.348,0.648-5.903,2.916l-0.864-0.648c1.152-1.116,2.699-2.196,4.14-2.771
		c-2.952-0.684-6.119-1.8-9.396-4.032L390.807,47.88z M402.973,64.186c4.212,1.476,8.459,5.075,10.079,9.719l-1.044,0.54
		c-1.548-4.319-5.688-7.955-9.467-9.287L402.973,64.186z M405.097,48.744c2.196,1.62,4.175,3.527,5.327,5.255l-0.863,0.684
		c-1.116-1.656-3.061-3.708-5.184-5.219L405.097,48.744z M409.057,46.188c2.159,1.656,3.995,3.275,5.219,5.147l-0.828,0.684
		c-1.26-1.835-3.096-3.563-5.146-5.075L409.057,46.188z"/>
</g>
</svg>
